<svg xmlns="http://www.w3.org/2000/svg" xmlns:xlink="http://www.w3.org/1999/xlink" width="3000" zoomAndPan="magnify" viewBox="0 0 2250 2250.000011" height="3000" preserveAspectRatio="xMidYMid meet" version="1.0"><defs><clipPath id="58e3cee676"><path d="M 0.5 0 L 2249.5 0 L 2249.5 2249 L 0.5 2249 Z M 0.5 0 " clip-rule="nonzero"/></clipPath><clipPath id="849fb419b8"><path d="M 98.945312 190.75 L 2150.785156 190.75 L 2150.785156 1675.835938 L 98.945312 1675.835938 Z M 98.945312 190.75 " clip-rule="nonzero"/></clipPath><clipPath id="dc9b86a6a6"><path d="M 241.382812 190.75 L 2008.605469 190.75 C 2046.382812 190.75 2082.613281 205.757812 2109.324219 232.46875 C 2136.035156 259.179688 2151.042969 295.410156 2151.042969 333.183594 L 2151.042969 1533.421875 C 2151.042969 1571.199219 2136.035156 1607.425781 2109.324219 1634.140625 C 2082.613281 1660.851562 2046.382812 1675.859375 2008.605469 1675.859375 L 241.382812 1675.859375 C 203.605469 1675.859375 167.378906 1660.851562 140.664062 1634.140625 C 113.953125 1607.425781 98.945312 1571.199219 98.945312 1533.421875 L 98.945312 333.183594 C 98.945312 295.410156 113.953125 259.179688 140.664062 232.46875 C 167.378906 205.757812 203.605469 190.75 241.382812 190.75 Z M 241.382812 190.75 " clip-rule="nonzero"/></clipPath><clipPath id="deb2233e68"><path d="M 1002.351562 1586.035156 L 1247.648438 1586.035156 L 1247.648438 2046.589844 L 1002.351562 2046.589844 Z M 1002.351562 1586.035156 " clip-rule="nonzero"/></clipPath><clipPath id="4c9bc5ab56"><path d="M 0.351562 0.0351562 L 245.648438 0.0351562 L 245.648438 460.589844 L 0.351562 460.589844 Z M 0.351562 0.0351562 " clip-rule="nonzero"/></clipPath><clipPath id="9287ceb695"><rect x="0" width="246" y="0" height="461"/></clipPath><clipPath id="2f07be5e69"><path d="M 634.304688 1866.273438 L 1615.957031 1866.273438 L 1615.957031 2058.253906 L 634.304688 2058.253906 Z M 634.304688 1866.273438 " clip-rule="nonzero"/></clipPath><clipPath id="b7c0553ba8"><path d="M 724.265625 1866.273438 L 1525.734375 1866.273438 C 1549.59375 1866.273438 1572.476562 1875.75 1589.347656 1892.621094 C 1606.21875 1909.492188 1615.695312 1932.375 1615.695312 1956.234375 L 1615.695312 1968.292969 C 1615.695312 1992.152344 1606.21875 2015.035156 1589.347656 2031.90625 C 1572.476562 2048.777344 1549.59375 2058.253906 1525.734375 2058.253906 L 724.265625 2058.253906 C 700.40625 2058.253906 677.523438 2048.777344 660.652344 2031.90625 C 643.78125 2015.035156 634.304688 1992.152344 634.304688 1968.292969 L 634.304688 1956.234375 C 634.304688 1932.375 643.78125 1909.492188 660.652344 1892.621094 C 677.523438 1875.75 700.40625 1866.273438 724.265625 1866.273438 Z M 724.265625 1866.273438 " clip-rule="nonzero"/></clipPath><clipPath id="ecafbfaa01"><path d="M 0.304688 0.273438 L 981.703125 0.273438 L 981.703125 192.253906 L 0.304688 192.253906 Z M 0.304688 0.273438 " clip-rule="nonzero"/></clipPath><clipPath id="fa13557d9f"><path d="M 90.265625 0.273438 L 891.734375 0.273438 C 915.59375 0.273438 938.476562 9.75 955.347656 26.621094 C 972.21875 43.492188 981.695312 66.375 981.695312 90.234375 L 981.695312 102.292969 C 981.695312 126.152344 972.21875 149.035156 955.347656 165.90625 C 938.476562 182.777344 915.59375 192.253906 891.734375 192.253906 L 90.265625 192.253906 C 66.40625 192.253906 43.523438 182.777344 26.652344 165.90625 C 9.78125 149.035156 0.304688 126.152344 0.304688 102.292969 L 0.304688 90.234375 C 0.304688 66.375 9.78125 43.492188 26.652344 26.621094 C 43.523438 9.75 66.40625 0.273438 90.265625 0.273438 Z M 90.265625 0.273438 " clip-rule="nonzero"/></clipPath><clipPath id="615aec0b0c"><rect x="0" width="982" y="0" height="193"/></clipPath></defs><g clip-path="url(#58e3cee676)"><path fill="#ffffff" d="M 0.5 0 L 2249.5 0 L 2249.5 2249 L 0.5 2249 Z M 0.5 0 " fill-opacity="1" fill-rule="nonzero"/><path fill="#0d1d12" d="M 0.5 0 L 2249.5 0 L 2249.5 2249 L 0.5 2249 Z M 0.5 0 " fill-opacity="1" fill-rule="nonzero"/></g><g clip-path="url(#849fb419b8)"><g clip-path="url(#dc9b86a6a6)"><path stroke-linecap="butt" transform="matrix(0.749667, 0, 0, 0.749667, 98.946682, 190.749491)" fill="none" stroke-linejoin="miter" d="M 189.999255 0.000678395 L 2547.343459 0.000678395 C 2597.735639 0.000678395 2646.064403 20.019989 2681.694816 55.650403 C 2717.325229 91.280816 2737.34454 139.609579 2737.34454 189.996549 L 2737.34454 1791.025568 C 2737.34454 1841.417748 2717.325229 1889.741301 2681.694816 1925.376925 C 2646.064403 1961.007338 2597.735639 1981.026649 2547.343459 1981.026649 L 189.999255 1981.026649 C 139.607074 1981.026649 91.283522 1961.007338 55.647898 1925.376925 C 20.017484 1889.741301 -0.00182651 1841.417748 -0.00182651 1791.025568 L -0.00182651 189.996549 C -0.00182651 139.609579 20.017484 91.280816 55.647898 55.650403 C 91.283522 20.019989 139.607074 0.000678395 189.999255 0.000678395 Z M 189.999255 0.000678395 " stroke="#dfeddf" stroke-width="320" stroke-opacity="1" stroke-miterlimit="4"/></g></g><g clip-path="url(#deb2233e68)"><g transform="matrix(1, 0, 0, 1, 1002, 1586)"><g clip-path="url(#9287ceb695)"><g clip-path="url(#4c9bc5ab56)"><path fill="#dfeddf" d="M 0.351562 0.0351562 L 245.648438 0.0351562 L 245.648438 460.925781 L 0.351562 460.925781 Z M 0.351562 0.0351562 " fill-opacity="1" fill-rule="nonzero"/></g></g></g></g><g clip-path="url(#2f07be5e69)"><g clip-path="url(#b7c0553ba8)"><g transform="matrix(1, 0, 0, 1, 634, 1866)"><g clip-path="url(#615aec0b0c)"><g clip-path="url(#ecafbfaa01)"><g clip-path="url(#fa13557d9f)"><path fill="#dfeddf" d="M 0.304688 0.273438 L 981.957031 0.273438 L 981.957031 192.253906 L 0.304688 192.253906 Z M 0.304688 0.273438 " fill-opacity="1" fill-rule="nonzero"/></g></g></g></g></g></g></svg>